<svg version="1.2" xmlns="http://www.w3.org/2000/svg" viewBox="0 0 200 200" width="200" height="200"><style>.a{fill:#1d1d1d}</style><path fill-rule="evenodd" class="a" d="m183.4 187.5h-167.1c-8.6 0-15.6-7-15.6-15.7v-142.6c0-8.7 7-15.7 15.6-15.7h46.3c5.2 0 10.2 1.5 14.6 4.2l16 9.9c2.1 1.3 4.6 2 7.1 2h83.1c8.6 0 15.6 7.1 15.6 15.7v126.5c0 8.7-7 15.7-15.6 15.7zm-167.1-167c-4.8 0-8.7 3.9-8.7 8.7v142.6c0 4.8 3.9 8.7 8.7 8.7h167.1c4.7 0 8.6-3.9 8.6-8.7v-126.5c0-4.8-3.9-8.7-8.6-8.7h-83.1c-3.8 0-7.5-1.1-10.7-3.1l-16.1-9.9c-3.2-2-7-3.1-10.9-3.1z"/><path class="a" d="m35 72.8h129.6v6.9h-129.6z"/><path class="a" d="m35 96.5h129.6v7h-129.6z"/><path class="a" d="m35 120.3h129.6v7h-129.6z"/><path class="a" d="m35 144.1h129.6v6.9h-129.6z"/></svg>